<?xml version="1.0" encoding="utf-8"?>
<!-- Generator: Adobe Illustrator 24.0.2, SVG Export Plug-In . SVG Version: 6.00 Build 0)  -->
<svg version="1.1" id="Capa_1" xmlns="http://www.w3.org/2000/svg" xmlns:xlink="http://www.w3.org/1999/xlink" x="0px" y="0px"
	 viewBox="0 0 200 200" style="enable-background:new 0 0 200 200;" xml:space="preserve">
<style type="text/css">
	.st0{opacity:0.5;}
	.st1{fill:#6B74A2;}
	.st2{fill:#24263D;}
</style>
<g class="st0">
	<path class="st1" d="M124.37,118.16v20h-23v-77h29.22c12.51,0,21.36,2.12,26.54,6.37c5.18,4.25,7.77,11.44,7.77,21.58
		c0,9.97-2.74,17.31-8.21,22.01c-5.47,4.7-14.05,7.05-25.74,7.05H124.37z M140.98,89.55c0-2.67-0.69-4.56-2.06-5.7
		c-1.37-1.13-3.84-1.7-7.39-1.7h-7.15v16h7.15c3.56,0,6.02-0.65,7.39-1.94C140.29,94.93,140.98,92.7,140.98,89.55z"/>
</g>
<g>
	<path class="st2" d="M68.82,118.16c-11.62,0-20.15-2.35-25.59-7.05c-5.44-4.7-8.16-12.03-8.16-22.01c0-10.14,2.58-17.33,7.73-21.58
		c5.15-4.24,13.95-6.37,26.4-6.37h29.18v77h-23v-20H68.82z M60.83,96.22c1.37,1.29,3.84,1.94,7.39,1.94h7.15v-16h-7.15
		c-3.56,0-6.02,0.57-7.39,1.7c-1.37,1.13-2.06,3.03-2.06,5.7C58.77,92.7,59.46,94.93,60.83,96.22z"/>
</g>
</svg>
