<?xml version="1.0" encoding="utf-8"?>
<!-- Generator: Adobe Illustrator 24.0.2, SVG Export Plug-In . SVG Version: 6.00 Build 0)  -->
<svg version="1.1" id="Capa_1" xmlns="http://www.w3.org/2000/svg" xmlns:xlink="http://www.w3.org/1999/xlink" x="0px" y="0px"
	 viewBox="0 0 200 200" style="enable-background:new 0 0 200 200;" xml:space="preserve">
<style type="text/css">
	.st0{fill:#A09F9F;}
	.st1{fill:#BDBCBC;}
	.st2{fill:#FFFFFF;}
</style>
<g>
	<path class="st0" d="M153,89.69c-0.6,1.68-0.66,3.48-1.1,5.2c-2.98,11.74-10.1,19.86-21.2,24.53c-6.83,2.87-14.01,4.4-21.25,5.76
		c-5.7,1.08-11.43,2-17.08,3.35c-2.72,0.65-3.53,1.65-3.5,4.43c0.04,3.31,0.11,6.63,0.18,9.94c0.12,5.02,0.15,10.1-1.32,14.96
		c-3.07,10.15-9.98,16.22-20.18,18.66c-0.84,0.2-1.74,0.04-2.54,0.47c-1.35,0-2.71,0-4.06,0c-0.62-0.48-0.81-1.11-0.76-1.88
		c0.05-0.71,0-1.43,0-2.15c0.02-2.53,0.03-5.05,0.05-7.58c0-0.24-0.01-0.48-0.25-0.62c0-0.96,0-1.92,0-2.88
		c0.33-0.17,0.23-0.48,0.23-0.74c0.02-2.44,0.25-4.86,0.45-7.28c0.81-9.61,3.52-18.62,8.29-26.99c5.66-9.93,13.68-17.22,24.2-21.71
		c4.67-1.99,9.62-3.02,14.46-4.45c10.22-3.02,19.54-7.65,27.04-15.48c5.7-5.95,9.48-12.85,10.72-21.08c0.21-1.38,0.4-2.76,0.62-4.32
		c0.22,0.27,0.31,0.35,0.36,0.46c2.43,5.35,4.48,10.83,5.67,16.6c0.36,1.78,0.64,3.57,0.96,5.35C153,84.73,153,87.21,153,89.69z"/>
	<path class="st1" d="M62.19,36c17.35,0,34.7,0,52.05,0c0.96,0.4,2,0.35,3.01,0.47c3.17,0.35,6.3,0.93,9.32,1.97
		c5.81,1.99,10.54,5.57,14.67,10.02c0.83,0.9,1.25,1.93,0.95,3.18c-0.9,0.3-0.97,1.21-1.29,1.88c-2.09,4.37-4.82,8.23-8.71,11.17
		c-2.74,2.07-5.71,3.74-9.13,4.43c-1.86-1.81-3.8-3.53-6.24-4.55c-3.15-1.32-6.4-1.69-9.83-1.52c-4.27,0.2-8.54,0.2-12.81,0.07
		c-3.02-0.09-3.63,0.27-3.64,2.91c-0.01,4.87-0.04,9.74-0.07,14.61c-0.38-0.06-0.69,0.13-1.02,0.27c-3.17,1.4-5.93,3.41-8.44,5.76
		c-4.47,4.17-8.53,8.69-11.63,14.01c-3.65,6.27-6.41,12.88-7.68,20.06c-0.12,0.69-0.23,1.46-1.13,1.65
		c-0.09-0.75-0.26-1.5-0.26-2.25c-0.02-26.9-0.03-53.81-0.06-80.71C60.25,37.86,60.55,36.57,62.19,36z"/>
	<path class="st1" d="M60,165.08c0.24,0.15,0.25,0.38,0.25,0.62c-0.02,2.53-0.03,5.05-0.05,7.58c-0.07,0.01-0.14-0.01-0.2-0.05
		C60,170.51,60,167.8,60,165.08z"/>
	<path class="st2" d="M60.03,173.23c0.06,0.04,0.13,0.05,0.2,0.05c0,0.72,0.05,1.43,0,2.15c-0.05,0.77,0.13,1.41,0.76,1.88
		c-0.82,0.18-1.05-0.13-0.98-0.96C60.1,175.32,60.03,174.27,60.03,173.23z"/>
	<path class="st0" d="M90.46,80.65c0.08,4.19,0.17,8.38,0.24,12.57c0.03,1.59-0.3,2.02-1.8,2.55
		c-13.24,4.74-21.76,13.94-25.81,27.36c-0.41,1.37-0.77,2.76-1.16,4.14c-0.03,0.12-0.05,0.23-0.1,0.34
		c-0.21,0.47-0.35,1.17-0.9,1.15c-0.67-0.02-0.53-0.81-0.59-1.25c-0.23-1.71,0.07-3.42,0.22-5.13c0.9-0.18,1.01-0.96,1.13-1.65
		c1.26-7.18,4.03-13.79,7.68-20.06c3.1-5.32,7.16-9.84,11.63-14.01c2.51-2.34,5.27-4.36,8.44-5.76
		C89.77,80.78,90.08,80.59,90.46,80.65z"/>
	<path class="st0" d="M142.18,51.66c-0.03,6.47-1.47,12.57-4.82,18.15c-2.83,4.71-6.73,8.38-11.24,11.45
		c-0.19,0.13-0.41,0.23-0.72,0.4c-0.21-0.72,0.1-1.31,0.14-1.91c0.22-3.37-0.76-6.47-2.08-9.49c-0.16-0.36-0.27-0.74-0.41-1.11
		c3.43-0.69,6.4-2.35,9.13-4.43c3.88-2.94,6.62-6.81,8.71-11.17C141.21,52.86,141.28,51.96,142.18,51.66z"/>
</g>
</svg>
